<svg width="90" height="62" viewBox="0 0 90 62" fill="none" xmlns="http://www.w3.org/2000/svg">
<path d="M51.1893 39.6579L51.1894 39.6579C52.6287 39.3705 54.1019 39.2575 55.5677 39.3248C55.5678 39.3187 55.5678 39.3127 55.5678 39.3068V38.1873V34.7792V30.8374V27.5777V26.693C54.85 26.6586 54.1285 26.6687 53.4105 26.7231L51.1893 39.6579ZM51.1893 39.6579C49.5784 39.9801 48.0155 40.5266 46.5506 41.2709L46.5505 41.271C46.0232 41.5391 45.5065 41.8322 45.0085 42.1521M51.1893 39.6579L45.0085 42.1521M56.5817 26.2558C56.593 26.6194 56.589 26.9894 56.585 27.3531C56.583 27.536 56.581 27.7172 56.581 27.8953V31.3034V35.2452V38.5049V39.8691C56.581 40.0077 56.5206 40.1353 56.4344 40.2256C56.3472 40.317 56.2127 40.3907 56.0522 40.3788L56.0517 40.3788C55.174 40.312 54.2884 40.312 53.408 40.3788C51.8592 40.4967 50.3248 40.8378 48.8641 41.3718L56.5817 26.2558ZM56.5817 26.2558C56.5829 26.2418 56.5836 26.2277 56.5836 26.2134C56.5836 26.1354 56.5677 26.0655 56.5401 26.0043C56.5126 25.9407 56.4718 25.8845 56.42 25.8385C56.3769 25.8003 56.3288 25.7715 56.2788 25.7511C56.219 25.7245 56.1552 25.7085 56.0922 25.7038C54.4601 25.5797 52.8127 25.6827 51.2079 26.0021L51.2078 26.0021C49.6049 26.3216 48.0474 26.8628 46.5879 27.5992C46.0418 27.8745 45.5182 28.1799 45.0062 28.5049C43.8821 27.8089 42.7106 27.2046 41.457 26.7467C39.9224 26.1842 38.3093 25.8384 36.681 25.7091C35.7592 25.6351 34.8349 25.6351 33.9135 25.7064C33.9134 25.7064 33.9133 25.7064 33.9132 25.7064L33.9325 25.9557C33.7919 25.9661 33.6722 26.065 33.6722 26.216V27.5803V30.84V34.7818V38.1898C33.6722 38.3738 33.6701 38.5581 33.6681 38.7424L56.5817 26.2558ZM38.6087 40.6584C37.0775 40.3506 35.5097 40.2607 33.9514 40.3788L33.951 40.3788C33.7905 40.3907 33.656 40.3171 33.5688 40.2256C33.4826 40.1353 33.4222 40.0077 33.4222 39.8691V39.8498L38.6087 40.6584ZM38.6087 40.6584C40.1387 40.9664 41.6269 41.4797 43.0144 42.1901L43.0146 42.1902C43.6064 42.4925 44.1794 42.8342 44.7391 43.1978L44.7401 43.1985C44.8233 43.252 44.9191 43.2737 45.0051 43.2743C45.0906 43.2749 45.1905 43.2546 45.2778 43.1956C46.3905 42.447 47.6039 41.8338 48.8639 41.3719L38.6087 40.6584ZM45.0085 42.1521C43.8952 41.4511 42.7214 40.8595 41.4829 40.4052L41.4828 40.4051C39.9408 39.8401 38.3225 39.489 36.6858 39.3597M45.0085 42.1521L53.4104 26.7231C51.8691 26.8411 50.3425 27.1771 48.8872 27.7084L48.8871 27.7084C47.6166 28.1721 46.4178 28.8006 45.2802 29.5418C45.1171 29.6485 44.9001 29.639 44.7486 29.5449L44.7466 29.5437L44.7466 29.5437C44.1651 29.175 43.5849 28.821 42.9789 28.5141L42.9785 28.514C41.5961 27.8112 40.113 27.3031 38.5907 26.9976M36.6858 39.3597C36.6859 39.3597 36.686 39.3597 36.6861 39.3597L36.6661 39.6089L36.6858 39.3597ZM36.6858 39.3597C35.9405 39.2999 35.1936 39.2884 34.448 39.3239M34.448 39.3239V38.5024V35.2427V31.3009V27.8928V26.7732C34.448 26.748 34.4484 26.721 34.4489 26.6926M34.448 39.3239C34.3646 39.3279 34.2813 39.3324 34.198 39.3376V38.5024V35.2427V31.3009V27.8928V26.7732C34.198 26.751 34.1982 26.7287 34.1985 26.7064C34.282 26.7012 34.3654 26.6966 34.4489 26.6926M34.448 39.3239V39.5742L34.4536 26.4421M34.4489 26.6926C35.837 26.6264 37.2305 26.7269 38.5907 26.9976M34.4489 26.6926C34.4494 26.6688 34.4499 26.6441 34.4505 26.6187C34.4519 26.5624 34.4533 26.5026 34.4536 26.4421M38.5907 26.9976C38.5906 26.9975 38.5906 26.9975 38.5905 26.9975L38.6397 26.7524M38.5907 26.9976C38.5908 26.9976 38.5908 26.9976 38.5909 26.9976L38.6397 26.7524M38.6397 26.7524C40.1836 27.0622 41.6885 27.5777 43.0918 28.2911L34.4536 26.4421M38.6397 26.7524C37.2645 26.4788 35.8562 26.3766 34.4536 26.4421M34.2377 39.5528C34.2475 39.5626 34.2558 39.5731 34.2626 39.5841C34.2426 39.5853 34.2227 39.5865 34.2027 39.5878C34.2012 39.5879 34.1996 39.588 34.198 39.5881V39.5229C34.212 39.5305 34.2254 39.5404 34.2377 39.5528Z" fill="#A0A0A0" stroke="#A0A0A0" stroke-width="0.5"/>
<path d="M46.3456 18.9832C44.8137 18.4178 43.0168 18.9065 41.9832 20.1684L41.9832 20.1684C40.9361 21.4461 40.7818 23.2849 41.6452 24.7082L41.6454 24.7085C42.5025 26.1166 44.1724 26.8381 45.7839 26.5213L45.7843 26.5212C47.3573 26.2094 48.6323 24.891 48.8778 23.3025C48.9102 23.0998 48.9267 22.8956 48.93 22.6925C48.9302 22.687 48.9303 22.6815 48.9303 22.676C48.9303 22.6759 48.9303 22.6759 48.9303 22.6759C48.9303 22.6754 48.9303 22.6748 48.9303 22.6743V22.6727C48.9303 22.6702 48.9303 22.6678 48.9303 22.6653C48.9194 21.0243 47.8808 19.5523 46.3459 18.9833L46.3456 18.9832ZM47.9096 22.6742C47.9096 22.6747 47.9096 22.6752 47.9096 22.6758L47.9096 22.6711C47.9096 22.6721 47.9096 22.6732 47.9096 22.6742Z" fill="#A0A0A0" stroke="#A0A0A0" stroke-width="0.5"/>
<path d="M44.5081 29.1118V30.476V33.7357V37.6775V41.0856C44.5081 41.2637 44.5061 41.4449 44.5041 41.6278C44.5001 41.9983 44.4959 42.3754 44.5081 42.7456V42.7649C44.5081 42.9196 44.5709 43.0526 44.6765 43.1434C44.7768 43.2297 44.9023 43.2668 45.0185 43.2668C45.1346 43.2668 45.2601 43.2297 45.3605 43.1434C45.4661 43.0526 45.5288 42.9196 45.5288 42.7649V41.4006V38.1409V34.1991V30.791C45.5288 30.613 45.5308 30.4317 45.5328 30.2489C45.5369 29.8783 45.541 29.5013 45.5288 29.1311V29.1118C45.5288 28.957 45.4661 28.8241 45.3605 28.7333C45.2601 28.647 45.1346 28.6099 45.0185 28.6099C44.9023 28.6099 44.7768 28.647 44.6765 28.7333C44.5709 28.8241 44.5081 28.957 44.5081 29.1118Z" fill="#A0A0A0" stroke="#A0A0A0" stroke-width="0.5"/>
</svg>
