<svg width="19" height="22" viewBox="0 0 19 22" fill="none" xmlns="http://www.w3.org/2000/svg">
<path d="M15.5026 0.166626C16.9984 0.166626 18.2109 1.37919 18.2109 2.87496V18.3125C18.2109 18.7612 17.8472 19.125 17.3984 19.125H1.96094C1.96094 19.7233 2.44597 20.2083 3.04427 20.2083H17.3984C17.8472 20.2083 18.2109 20.5721 18.2109 21.0208C18.2109 21.4695 17.8472 21.8333 17.3984 21.8333H3.04427C1.5485 21.8333 0.335938 20.6207 0.335938 19.125V2.87496C0.335938 1.37919 1.5485 0.166626 3.04427 0.166626H15.5026ZM15.5026 1.79163H3.04427C2.44597 1.79163 1.96094 2.27666 1.96094 2.87496V17.5H16.5859V2.87496C16.5859 2.27666 16.1009 1.79163 15.5026 1.79163ZM11.9818 10.4583C12.3931 10.4583 12.7331 10.764 12.7869 11.1605L12.7943 11.2708V11.8119C12.7943 12.8958 11.2958 13.7083 9.27344 13.7083C7.32875 13.7083 5.86864 12.9571 5.7592 11.9357L5.7526 11.8119V11.2708C5.7526 10.8595 6.05827 10.5195 6.45485 10.4657L6.5651 10.4583H11.9818ZM9.27344 5.58329C10.3208 5.58329 11.1693 6.42681 11.1693 7.47422C11.1693 8.52163 10.3208 9.37073 9.27344 9.37073C8.22607 9.37073 7.3776 8.52163 7.3776 7.47422C7.3776 6.42681 8.22607 5.58329 9.27344 5.58329Z" fill="#A0A0A0"/>
</svg>
