<svg width="101" height="36" viewBox="0 0 101 36" fill="none" xmlns="http://www.w3.org/2000/svg">
<rect width="101" height="36" rx="4" fill="#F5F5F5"/>
<path d="M89.274 14.6406C89.0521 14.4187 88.7049 14.3985 88.4602 14.5801L88.3901 14.6406L82.9987 20.0317L77.6073 14.6406C77.3854 14.4187 77.0382 14.3985 76.7935 14.5801L76.7234 14.6406C76.5015 14.8625 76.4814 15.2097 76.6629 15.4544L76.7234 15.5245L82.5568 21.3578C82.7786 21.5797 83.1259 21.5999 83.3705 21.4183L83.4406 21.3578L89.274 15.5245C89.5181 15.2804 89.5181 14.8847 89.274 14.6406Z" fill="#262626"/>
<path d="M9.372 23V13.2H13.544C14.104 13.2 14.6173 13.34 15.084 13.62C15.56 13.8907 15.938 14.264 16.218 14.74C16.498 15.2067 16.638 15.734 16.638 16.322C16.638 16.854 16.498 17.3487 16.218 17.806C15.938 18.2633 15.5647 18.632 15.098 18.912C14.6313 19.1827 14.1133 19.318 13.544 19.318H10.884V23H9.372ZM15.196 23L12.704 18.576L14.258 18.226L17.03 23.014L15.196 23ZM10.884 17.862H13.684C13.9547 17.862 14.1973 17.7967 14.412 17.666C14.6267 17.526 14.7947 17.3393 14.916 17.106C15.0373 16.8633 15.098 16.5973 15.098 16.308C15.098 15.9813 15.0187 15.6967 14.86 15.454C14.7107 15.202 14.496 15.006 14.216 14.866C13.9453 14.726 13.6373 14.656 13.292 14.656H10.884V17.862ZM21.8989 23.14C21.1429 23.14 20.4709 22.9813 19.8829 22.664C19.3043 22.3373 18.8469 21.894 18.5109 21.334C18.1843 20.774 18.0209 20.13 18.0209 19.402C18.0209 18.8233 18.1143 18.296 18.3009 17.82C18.4876 17.344 18.7443 16.9333 19.0709 16.588C19.4069 16.2333 19.8036 15.9627 20.2609 15.776C20.7276 15.58 21.2316 15.482 21.7729 15.482C22.2489 15.482 22.6923 15.5753 23.1029 15.762C23.5136 15.9393 23.8683 16.1867 24.1669 16.504C24.4749 16.8213 24.7083 17.1993 24.8669 17.638C25.0349 18.0673 25.1143 18.5387 25.1049 19.052L25.0909 19.668H19.0849L18.7629 18.52H23.8449L23.6349 18.758V18.422C23.6069 18.114 23.5043 17.8387 23.3269 17.596C23.1496 17.3533 22.9256 17.162 22.6549 17.022C22.3843 16.882 22.0903 16.812 21.7729 16.812C21.2689 16.812 20.8443 16.91 20.4989 17.106C20.1536 17.2927 19.8923 17.5727 19.7149 17.946C19.5376 18.31 19.4489 18.7627 19.4489 19.304C19.4489 19.8173 19.5563 20.2653 19.7709 20.648C19.9856 21.0213 20.2889 21.3107 20.6809 21.516C21.0729 21.7213 21.5256 21.824 22.0389 21.824C22.4029 21.824 22.7389 21.7633 23.0469 21.642C23.3643 21.5207 23.7049 21.3013 24.0689 20.984L24.7969 22.006C24.5729 22.23 24.2976 22.426 23.9709 22.594C23.6536 22.762 23.3129 22.8973 22.9489 23C22.5943 23.0933 22.2443 23.14 21.8989 23.14ZM29.5001 23.14C28.8934 23.14 28.3381 22.972 27.8341 22.636C27.3394 22.3 26.9427 21.8427 26.6441 21.264C26.3454 20.6853 26.1961 20.032 26.1961 19.304C26.1961 18.5667 26.3454 17.9133 26.6441 17.344C26.9521 16.7653 27.3627 16.3127 27.8761 15.986C28.3987 15.6593 28.9821 15.496 29.6261 15.496C30.0087 15.496 30.3587 15.552 30.6761 15.664C30.9934 15.776 31.2687 15.9347 31.5021 16.14C31.7447 16.336 31.9407 16.5647 32.0901 16.826C32.2487 17.0873 32.3467 17.3673 32.3841 17.666L32.0621 17.554V15.65H33.5181V23H32.0621V21.25L32.3981 21.152C32.3421 21.404 32.2254 21.6513 32.0481 21.894C31.8801 22.1273 31.6607 22.3373 31.3901 22.524C31.1287 22.7107 30.8347 22.86 30.5081 22.972C30.1907 23.084 29.8547 23.14 29.5001 23.14ZM29.8781 21.81C30.3167 21.81 30.7041 21.7027 31.0401 21.488C31.3761 21.2733 31.6374 20.9793 31.8241 20.606C32.0201 20.2233 32.1181 19.7893 32.1181 19.304C32.1181 18.828 32.0201 18.4033 31.8241 18.03C31.6374 17.6567 31.3761 17.3627 31.0401 17.148C30.7041 16.9333 30.3167 16.826 29.8781 16.826C29.4487 16.826 29.0661 16.9333 28.7301 17.148C28.4034 17.3627 28.1421 17.6567 27.9461 18.03C27.7594 18.4033 27.6661 18.828 27.6661 19.304C27.6661 19.7893 27.7594 20.2233 27.9461 20.606C28.1421 20.9793 28.4034 21.2733 28.7301 21.488C29.0661 21.7027 29.4487 21.81 29.8781 21.81ZM38.5974 23.14C37.9254 23.14 37.3234 22.9767 36.7914 22.65C36.2688 22.314 35.8534 21.8613 35.5454 21.292C35.2374 20.7133 35.0834 20.0553 35.0834 19.318C35.0834 18.5807 35.2328 17.9273 35.5314 17.358C35.8394 16.7793 36.2548 16.3267 36.7774 16C37.3001 15.664 37.8928 15.496 38.5554 15.496C38.9194 15.496 39.2694 15.5567 39.6054 15.678C39.9508 15.79 40.2588 15.9487 40.5294 16.154C40.8001 16.35 41.0101 16.5693 41.1594 16.812C41.3181 17.0453 41.3974 17.2833 41.3974 17.526L40.9774 17.554V12.64H42.4194V23H40.9774V21.25H41.2574C41.2574 21.474 41.1828 21.698 41.0334 21.922C40.8841 22.1367 40.6834 22.3373 40.4314 22.524C40.1888 22.7107 39.9041 22.86 39.5774 22.972C39.2601 23.084 38.9334 23.14 38.5974 23.14ZM38.7934 21.894C39.2321 21.894 39.6194 21.782 39.9554 21.558C40.2914 21.334 40.5528 21.0307 40.7394 20.648C40.9354 20.256 41.0334 19.8127 41.0334 19.318C41.0334 18.8233 40.9354 18.3847 40.7394 18.002C40.5528 17.61 40.2914 17.302 39.9554 17.078C39.6194 16.854 39.2321 16.742 38.7934 16.742C38.3548 16.742 37.9674 16.854 37.6314 17.078C37.2954 17.302 37.0294 17.61 36.8334 18.002C36.6468 18.3847 36.5534 18.8233 36.5534 19.318C36.5534 19.8127 36.6468 20.256 36.8334 20.648C37.0294 21.0307 37.2954 21.334 37.6314 21.558C37.9674 21.782 38.3548 21.894 38.7934 21.894ZM47.8345 23.14C47.0785 23.14 46.4065 22.9813 45.8185 22.664C45.2398 22.3373 44.7825 21.894 44.4465 21.334C44.1198 20.774 43.9565 20.13 43.9565 19.402C43.9565 18.8233 44.0498 18.296 44.2365 17.82C44.4232 17.344 44.6798 16.9333 45.0065 16.588C45.3425 16.2333 45.7392 15.9627 46.1965 15.776C46.6632 15.58 47.1672 15.482 47.7085 15.482C48.1845 15.482 48.6278 15.5753 49.0385 15.762C49.4492 15.9393 49.8038 16.1867 50.1025 16.504C50.4105 16.8213 50.6438 17.1993 50.8025 17.638C50.9705 18.0673 51.0498 18.5387 51.0405 19.052L51.0265 19.668H45.0205L44.6985 18.52H49.7805L49.5705 18.758V18.422C49.5425 18.114 49.4398 17.8387 49.2625 17.596C49.0852 17.3533 48.8612 17.162 48.5905 17.022C48.3198 16.882 48.0258 16.812 47.7085 16.812C47.2045 16.812 46.7798 16.91 46.4345 17.106C46.0892 17.2927 45.8278 17.5727 45.6505 17.946C45.4732 18.31 45.3845 18.7627 45.3845 19.304C45.3845 19.8173 45.4918 20.2653 45.7065 20.648C45.9212 21.0213 46.2245 21.3107 46.6165 21.516C47.0085 21.7213 47.4612 21.824 47.9745 21.824C48.3385 21.824 48.6745 21.7633 48.9825 21.642C49.2998 21.5207 49.6405 21.3013 50.0045 20.984L50.7325 22.006C50.5085 22.23 50.2332 22.426 49.9065 22.594C49.5892 22.762 49.2485 22.8973 48.8845 23C48.5298 23.0933 48.1798 23.14 47.8345 23.14ZM52.6076 23V15.65H54.0636V17.96L53.9236 17.4C54.0263 17.0453 54.1989 16.7233 54.4416 16.434C54.6936 16.1447 54.9783 15.916 55.2956 15.748C55.6223 15.58 55.9583 15.496 56.3036 15.496C56.4623 15.496 56.6116 15.51 56.7516 15.538C56.9009 15.566 57.0176 15.5987 57.1016 15.636L56.7236 17.204C56.6116 17.1573 56.4856 17.12 56.3456 17.092C56.2149 17.0547 56.0843 17.036 55.9536 17.036C55.7016 17.036 55.4589 17.0873 55.2256 17.19C55.0016 17.2833 54.8009 17.4187 54.6236 17.596C54.4556 17.764 54.3203 17.9647 54.2176 18.198C54.1149 18.422 54.0636 18.6693 54.0636 18.94V23H52.6076Z" fill="#262626"/>
</svg>
