<svg width="18" height="12" viewBox="0 0 18 12" fill="none" xmlns="http://www.w3.org/2000/svg">
<path d="M7.13311 0.604821C7.03643 0.617754 6.94514 0.656678 6.8688 0.717322L1.10876 5.21735C0.978433 5.31968 0.902344 5.47626 0.902344 5.642C0.902344 5.80774 0.978433 5.9643 1.10876 6.06677L6.8688 10.5668H6.86893C6.9754 10.6498 7.10925 10.6898 7.24384 10.679C7.37844 10.6683 7.50413 10.6075 7.59616 10.5085C7.68807 10.4097 7.73968 10.2799 7.74081 10.1449V8.35058C8.95836 8.36213 13.146 8.59379 16.2067 11.2699C16.3263 11.3727 16.485 11.4179 16.641 11.3937C16.7968 11.3696 16.9344 11.2785 17.0175 11.1444C17.1005 11.0103 17.1207 10.8464 17.0729 10.6962C15.5607 6.03701 11.0155 3.97471 7.74112 3.07985V1.14487C7.74225 0.989172 7.67621 0.840511 7.55981 0.737036C7.44342 0.633574 7.28811 0.585359 7.13353 0.604821H7.13311ZM6.66063 2.2474V3.48491C6.66063 3.60469 6.70031 3.72108 6.77364 3.81575C6.84696 3.91043 6.94967 3.9781 7.06569 4.00799C9.71157 4.67785 13.2979 6.17752 15.1882 9.22802C11.5718 7.1033 7.51569 7.24872 7.1724 7.26492C7.03416 7.2722 6.90383 7.33222 6.80867 7.43279C6.71337 7.53324 6.66038 7.66645 6.66051 7.80494V9.03679L2.31798 5.64506L6.66063 2.2474Z" fill="#3A37A6"/>
</svg>
