<svg width="30" height="30" viewBox="0 0 30 30" fill="none" xmlns="http://www.w3.org/2000/svg">
<path d="M19.5 29.25H10.5C6.82397 29.25 4.44586 28.5102 2.96783 27.0322C1.4898 25.5541 0.75 23.176 0.75 19.5V10.5C0.75 6.82397 1.4898 4.44586 2.96783 2.96783C4.44586 1.4898 6.82397 0.75 10.5 0.75H19.5C23.176 0.75 25.5541 1.4898 27.0322 2.96783C28.5102 4.44586 29.25 6.82397 29.25 10.5V19.5C29.25 23.176 28.5102 25.5541 27.0322 27.0322C25.5541 28.5102 23.176 29.25 19.5 29.25Z" fill="#3A37A6" stroke="#3A37A6" stroke-width="1.5" stroke-linecap="round" stroke-linejoin="round"/>
<path d="M8.625 14.9982L12.87 19.2432L21.375 10.7532" stroke="white" stroke-width="2" stroke-linecap="round" stroke-linejoin="round"/>
</svg>
